<svg width="60" height="60" viewBox="0 0 60 60" fill="none" xmlns="http://www.w3.org/2000/svg">
<g clip-path="url(#clip0_3805_13628)">
<path d="M48.3446 16.235C51.3768 16.235 53.8405 13.7713 53.8405 10.7391C53.8405 7.70684 51.3768 5.24316 48.3446 5.24316C45.3124 5.24316 42.8487 7.70684 42.8487 10.7391C42.8487 13.7713 45.3124 16.235 48.3446 16.235ZM48.3446 7.1383C50.3282 7.1383 51.9454 8.75548 51.9454 10.7391C51.9454 12.7226 50.3282 14.3398 48.3446 14.3398C46.361 14.3398 44.7438 12.7226 44.7438 10.7391C44.7438 8.75548 46.361 7.1383 48.3446 7.1383ZM33.7773 17.0435L25.982 24.0934L25.1102 23.1206C24.7565 22.729 24.1627 22.7037 23.771 23.0574C23.3793 23.4112 23.3541 24.005 23.7078 24.3967L24.5796 25.3695L23.3667 26.4687L22.4949 25.4958C22.1412 25.1042 21.5474 25.0789 21.1557 25.4327C20.7641 25.7864 20.7388 26.3802 21.0925 26.7719L21.9643 27.7447L18.3004 31.0423C17.9087 31.396 17.8835 31.9898 18.2372 32.3815C18.591 32.7732 19.1848 32.7984 19.5764 32.4447L23.2404 29.1471L27.2707 33.607C27.6244 33.9987 28.2183 34.024 28.6099 33.6702C29.0016 33.3164 29.0268 32.7226 28.6731 32.331L24.6428 27.8711L25.8557 26.7719L27.9782 29.1219C30.3282 31.7119 34.4343 31.8382 37.1507 29.3872C39.867 26.9362 40.1955 22.8932 37.9087 20.1895L37.8834 20.1642L35.1166 17.1067C34.7628 16.7151 34.169 16.6898 33.7773 17.0435ZM36.4684 21.4276C38.0856 23.348 37.8203 26.216 35.8746 27.9722C33.9416 29.7157 31.0231 29.6651 29.3806 27.8458L27.2581 25.4958L34.3585 19.0903L36.4684 21.4276Z" fill="#FF7C4A"/>
<path d="M58.1124 0H34.5622C34.3348 0 34.12 0.0758054 33.9431 0.227416L1.27095 28.3512C1.06881 28.5155 0.955098 28.7682 0.942463 29.0335C0.929829 29.2988 1.0309 29.5515 1.22042 29.741L24.7706 52.8743C24.9601 53.0512 25.2002 53.1396 25.4403 53.1396C25.655 53.1396 25.8824 53.0638 26.0593 52.9248L58.7315 24.8895C58.9336 24.7126 59.06 24.4473 59.06 24.1693V0.947568C59.06 0.429564 58.6304 0 58.1124 0ZM57.1775 23.7271L25.4908 50.9033L3.29243 29.1093L34.9286 1.8825H57.1775V23.7271Z" fill="#4A4B5C"/>
<path d="M57.493 30.3097L25.4905 57.7639L2.55934 34.858C2.19294 34.4916 1.5865 34.4916 1.22011 34.858C0.853714 35.2244 0.853714 35.8309 1.22011 36.1973L24.7703 59.7222C24.9598 59.9117 25.1999 60.0002 25.4399 60.0002C25.6547 60.0002 25.8821 59.9244 26.059 59.7854L58.7312 31.75C59.1228 31.4089 59.1734 30.8024 58.8322 30.4108C58.4911 30.0191 57.8847 29.9686 57.493 30.3097Z" fill="#4A4B5C"/>
</g>
<defs>
<clipPath id="clip0_3805_13628">
<rect width="60" height="60" fill="white"/>
</clipPath>
</defs>
</svg>
