<svg width="60" height="60" viewBox="0 0 60 60" fill="none" xmlns="http://www.w3.org/2000/svg">
<g clip-path="url(#clip0_3806_13774)">
<path d="M14.5518 29.2549L15.771 28.0386L14.1965 26.4613L17.2314 23.4264C17.3774 23.2617 17.455 23.0474 17.4484 22.8274C17.4417 22.6073 17.3513 22.3981 17.1956 22.2425C17.0399 22.0869 16.8307 21.9966 16.6107 21.99C16.3906 21.9835 16.1764 22.0612 16.0117 22.2073L12.9768 25.2445L10.102 22.3697L13.1369 19.3348C13.292 19.1721 13.3773 18.9552 13.3747 18.7305C13.3721 18.5057 13.2818 18.2909 13.123 18.1318C12.9642 17.9727 12.7496 17.882 12.5248 17.879C12.3001 17.876 12.0831 17.9609 11.9201 18.1156L8.88517 21.1505L6.01037 18.2774L12.6601 11.5511C12.8184 11.389 12.9066 11.171 12.9053 10.9444C12.9041 10.7178 12.8136 10.5007 12.6534 10.3404C12.4933 10.18 12.2764 10.0892 12.0498 10.0876C11.8231 10.0861 11.605 10.1739 11.4427 10.332L4.7463 17.0249L2.2153 14.4939C1.95166 14.2288 1.80367 13.8701 1.80367 13.4962C1.80367 13.1223 1.95166 12.7636 2.2153 12.4985L12.5633 2.15275C12.8284 1.8891 13.1871 1.74111 13.561 1.74111C13.9349 1.74111 14.2936 1.8891 14.5588 2.15275L28.13 15.6796L29.3491 14.4599L15.8044 0.915177C15.2162 0.328495 14.4194 -0.000976562 13.5887 -0.000976562C12.758 -0.000976562 11.9611 0.328495 11.373 0.915177L1.02553 11.2644C0.438846 11.8525 0.109375 12.6493 0.109375 13.4801C0.109375 14.3108 0.438846 15.1076 1.02553 15.6958L14.5518 29.2549ZM59.0681 44.1789L45.5257 30.6365L44.3065 31.8539L57.8484 45.398C58.112 45.6632 58.26 46.0219 58.26 46.3958C58.26 46.7696 58.112 47.1283 57.8484 47.3935L47.5032 57.7392C47.2381 58.0028 46.8794 58.1508 46.5055 58.1508C46.1316 58.1508 45.7729 58.0028 45.5078 57.7392L42.9797 55.2111L49.6403 48.5429C49.8185 48.3995 49.9325 48.1913 49.9573 47.9639C49.9821 47.7366 49.9158 47.5086 49.7728 47.3301C49.6294 47.1522 49.4213 47.0383 49.194 47.0135C48.9668 46.9886 48.739 47.0549 48.5606 47.1977C48.5133 47.2357 48.4725 47.2783 48.4339 47.3238L41.7421 54.0023L38.8673 51.1298L41.9039 48.0932C41.9868 48.0161 42.0536 47.9234 42.1006 47.8205C42.1476 47.7176 42.1738 47.6064 42.1778 47.4933C42.1818 47.3802 42.1634 47.2675 42.1237 47.1615C42.084 47.0555 42.0238 46.9584 41.9466 46.8758C41.8694 46.7928 41.7766 46.7258 41.6735 46.6788C41.5704 46.6317 41.4591 46.6055 41.3458 46.6015C41.2326 46.5975 41.1197 46.616 41.0135 46.6557C40.9074 46.6955 40.8102 46.7558 40.7274 46.8331C40.7142 46.847 40.6986 46.8602 40.6848 46.8758L37.632 49.8928L34.7572 47.0197L37.7939 43.9831C37.8708 43.9002 37.9307 43.8031 37.9701 43.6971C38.0095 43.5911 38.0276 43.4784 38.0235 43.3654C38.0193 43.2524 37.9929 43.1413 37.9458 43.0385C37.8987 42.9357 37.8318 42.8432 37.749 42.7663C37.59 42.6168 37.38 42.5335 37.1618 42.5335C36.9436 42.5335 36.7337 42.6168 36.5747 42.7663L33.5398 45.8012L31.9631 44.2261L30.7284 45.432L44.2731 58.9768C44.8613 59.5634 45.6581 59.8929 46.4888 59.8929C47.3196 59.8929 48.1164 59.5634 48.7045 58.9768L59.052 48.6282C59.6438 48.043 59.9791 47.2468 59.9842 46.4146C59.9893 45.5824 59.6637 44.7821 59.0791 44.1898L59.0681 44.1789Z" fill="#FF7C4A"/>
<path d="M53.9986 18.9145L56.1086 16.8045C59.6445 13.2029 59.591 7.41703 55.9894 3.88054C52.4351 0.389546 46.7413 0.389546 43.1875 3.87594L6.62075 40.4427C6.55096 40.5147 6.49459 40.5985 6.45432 40.6903V40.7888L1.38829 57.5568C1.25123 58.0117 1.5098 58.4926 1.96417 58.6325C2.12887 58.6815 2.30164 58.6815 2.46404 58.6325L19.2389 53.5665H19.331C19.4209 53.5262 19.5061 53.4697 19.5787 53.3995L54.028 18.9502L53.9986 18.9145ZM37.5116 11.9654L42.1458 16.5972L13.0816 45.6861L8.44745 41.052L37.5116 11.9654ZM3.45455 56.5334L4.1721 54.0905C4.93016 54.4393 5.55502 55.0239 5.95331 55.7572L3.45455 56.5334ZM7.64985 55.2694C7.05123 53.9918 5.99458 52.9857 4.68924 52.4504L7.63834 42.6783L17.3074 52.3646L7.64985 55.2694ZM18.9331 51.5434L14.3013 46.9053L43.3879 17.8169L48.0221 22.4729L18.9331 51.5434ZM49.2458 21.2313L44.0024 15.9902L38.7538 10.7462L41.6805 7.81958L52.173 18.3047L49.2458 21.2313ZM42.9226 6.59583L44.4119 5.09565C47.4168 2.31299 52.1074 2.49267 54.89 5.49589C57.5241 8.33902 57.5241 12.7324 54.89 15.5761L53.3893 17.0763L42.9226 6.59583Z" fill="#4A4B5C"/>
</g>
<defs>
<clipPath id="clip0_3806_13774">
<rect width="60" height="60" fill="white"/>
</clipPath>
</defs>
</svg>
