<svg width="60" height="60" viewBox="0 0 60 60" fill="none" xmlns="http://www.w3.org/2000/svg">
<path d="M55.7998 27.1129L54.246 20.8979C54.6708 20.8076 54.9895 20.4308 54.9895 19.9792V18.9772C54.9895 16.8015 53.2194 15.0315 51.0438 15.0315H43.9666V12.9645C43.9666 11.8939 43.0957 11.0229 42.0251 11.0229H5.94984C4.87922 11.0229 4.00828 11.8939 4.00828 12.9645V30.0001C4.00828 30.2492 4.10726 30.4882 4.28345 30.6644C4.45964 30.8406 4.6986 30.9396 4.94777 30.9396C5.19694 30.9396 5.43591 30.8406 5.61209 30.6644C5.78828 30.4882 5.88727 30.2492 5.88727 30.0001V12.9645C5.88727 12.9299 5.91527 12.9019 5.94984 12.9019H42.025C42.0595 12.9019 42.0875 12.9299 42.0875 12.9645V30.0003C42.0875 30.2495 42.1865 30.4884 42.3627 30.6646C42.5389 30.8408 42.7779 30.9398 43.027 30.9398C43.2762 30.9398 43.5152 30.8408 43.6914 30.6646C43.8675 30.4884 43.9665 30.2495 43.9665 30.0003V28.9353H55.0488L55.0513 28.9355L55.0539 28.9354C56.4176 28.9363 57.5755 29.8314 57.9732 31.0648H55.052C54.8028 31.0648 54.5639 31.1638 54.3877 31.34C54.2115 31.5162 54.1125 31.7551 54.1125 32.0043V34.0085C54.1125 35.6316 55.433 36.9521 57.0561 36.9521H58.1209V41.0856H55.6644C54.8575 38.7556 52.6425 37.0772 50.0415 37.0772C47.4405 37.0772 45.2255 38.7556 44.4186 41.0856H43.9663V34.0083C43.9663 33.7592 43.8673 33.5202 43.6911 33.344C43.5149 33.1678 43.276 33.0688 43.0268 33.0688C42.7776 33.0688 42.5387 33.1678 42.3625 33.344C42.1863 33.5202 42.0873 33.7592 42.0873 34.0083V41.0854H22.5957C21.7888 38.7554 19.5738 37.077 16.9729 37.077C14.3719 37.077 12.1568 38.7554 11.35 41.0854H5.94984C5.93325 41.0854 5.91733 41.0788 5.90559 41.0671C5.89386 41.0553 5.88727 41.0394 5.88727 41.0228V38.956H9.95824C10.2074 38.956 10.4464 38.857 10.6226 38.6808C10.7988 38.5046 10.8977 38.2657 10.8977 38.0165C10.8977 37.7673 10.7988 37.5284 10.6226 37.3522C10.4464 37.176 10.2074 37.077 9.95824 37.077H0.939492C0.690323 37.077 0.45136 37.176 0.275171 37.3522C0.0989819 37.5284 0 37.7673 0 38.0165C0 38.2657 0.0989819 38.5046 0.275171 38.6808C0.45136 38.857 0.690323 38.956 0.939492 38.956H4.0084V41.0228C4.0084 42.0935 4.87934 42.9644 5.94996 42.9644H11.0246C11.0244 42.9853 11.023 43.006 11.023 43.027C11.023 46.3078 13.6922 48.9768 16.9729 48.9768C20.2535 48.9768 22.9227 46.3078 22.9227 43.027C22.9227 43.0059 22.9213 42.9853 22.9211 42.9644H44.0933C44.0931 42.9853 44.0917 43.006 44.0917 43.027C44.0917 46.3078 46.7609 48.9768 50.0415 48.9768C53.3222 48.9768 55.9914 46.3078 55.9914 43.027C55.9914 43.0059 55.99 42.9853 55.9897 42.9644H59.0604C59.3096 42.9644 59.5485 42.8654 59.7247 42.6892C59.9009 42.513 59.9999 42.2741 59.9999 42.0249V32.0041C60 29.53 58.1746 27.4744 55.7998 27.1129ZM43.9666 16.9103H51.0438C52.1835 16.9103 53.1107 17.8375 53.1107 18.9772V19.0397H43.9666V16.9103ZM43.9666 27.0564V20.9186H52.3145L53.8489 27.0564H43.9666ZM16.9729 47.0982C14.7281 47.0982 12.9019 45.2721 12.9019 43.0272C12.9019 40.7824 14.7281 38.9562 16.9729 38.9562C19.2176 38.9562 21.0438 40.7824 21.0438 43.0272C21.0438 45.2721 19.2176 47.0982 16.9729 47.0982ZM50.0418 47.0982C47.797 47.0982 45.9708 45.2721 45.9708 43.0272C45.9708 40.7824 47.797 38.9562 50.0418 38.9562C52.2865 38.9562 54.1127 40.7824 54.1127 43.0272C54.1127 45.2721 52.2865 47.0982 50.0418 47.0982ZM58.1211 35.0731H57.0564C56.4693 35.0731 55.9916 34.5955 55.9916 34.0083V32.9436H58.121V35.0731H58.1211Z" fill="#4A4B5C"/>
<path d="M16.9726 41.0858C15.902 41.0858 15.0311 41.9568 15.0311 43.0274C15.0311 44.098 15.902 44.969 16.9726 44.969C18.0432 44.969 18.9142 44.098 18.9142 43.0274C18.9142 41.9568 18.0432 41.0858 16.9726 41.0858ZM50.0415 41.0858C48.9709 41.0858 48.1 41.9568 48.1 43.0274C48.1 44.098 48.9709 44.969 50.0415 44.969C51.1121 44.969 51.9831 44.098 51.9831 43.0274C51.9831 41.9568 51.1121 41.0858 50.0415 41.0858ZM39.0185 37.0776H24.9893C24.7401 37.0776 24.5012 37.1765 24.325 37.3527C24.1488 37.5289 24.0498 37.7679 24.0498 38.0171C24.0498 38.2662 24.1488 38.5052 24.325 38.6814C24.5012 38.8576 24.7401 38.9566 24.9893 38.9566H39.0185C39.2677 38.9566 39.5066 38.8576 39.6828 38.6814C39.859 38.5052 39.958 38.2662 39.958 38.0171C39.958 37.7679 39.859 37.5289 39.6828 37.3527C39.5066 37.1765 39.2677 37.0776 39.0185 37.0776ZM14.9685 33.0692H2.9434C2.69423 33.0692 2.45527 33.1682 2.27908 33.3443C2.10289 33.5205 2.00391 33.7595 2.00391 34.0087C2.00391 34.2578 2.10289 34.4968 2.27908 34.673C2.45527 34.8492 2.69423 34.9482 2.9434 34.9482H14.9685C15.2176 34.9482 15.4566 34.8492 15.6328 34.673C15.809 34.4968 15.908 34.2578 15.908 34.0087C15.908 33.7595 15.809 33.5205 15.6328 33.3443C15.4566 33.1682 15.2176 33.0692 14.9685 33.0692ZM32.6682 20.3171C32.492 20.1409 32.2531 20.042 32.0039 20.042C31.7548 20.042 31.5159 20.141 31.3397 20.3172L22.9852 28.6716L18.639 24.3255C18.5518 24.2382 18.4482 24.169 18.3343 24.1218C18.2203 24.0746 18.0981 24.0503 17.9747 24.0503C17.8514 24.0503 17.7292 24.0746 17.6152 24.1218C17.5013 24.169 17.3977 24.2382 17.3105 24.3255C17.2232 24.4127 17.154 24.5162 17.1068 24.6302C17.0596 24.7442 17.0353 24.8664 17.0353 24.9897C17.0353 25.1131 17.0596 25.2353 17.1068 25.3492C17.154 25.4632 17.2232 25.5668 17.3105 25.654L22.3209 30.6645C22.5043 30.848 22.7448 30.9396 22.9852 30.9396C23.2255 30.9396 23.4661 30.848 23.6494 30.6645L32.6681 21.6457C32.8443 21.4695 32.9433 21.2306 32.9433 20.9814C32.9433 20.7323 32.8444 20.4933 32.6682 20.3171Z" fill="#FF7C4A"/>
</svg>
