<svg width="60" height="60" viewBox="0 0 60 60" fill="none" xmlns="http://www.w3.org/2000/svg">
<path d="M45.8206 37.8663C45.6102 37.8663 45.4037 37.7884 45.244 37.6247L39.4154 31.7962C39.0959 31.4767 39.0959 30.9585 39.4154 30.639C39.7349 30.3195 40.2531 30.3195 40.5725 30.639L46.4011 36.4676C46.7206 36.7871 46.7206 37.3053 46.4011 37.6247C46.2414 37.7845 46.031 37.8663 45.8206 37.8663Z" fill="#FF7C4A"/>
<path d="M38.7694 51.035C35.9292 51.035 33.1746 50.4778 30.5798 49.383C28.0746 48.3233 25.8266 46.8077 23.8941 44.8752C21.9616 42.9428 20.4461 40.6947 19.3863 38.1895C18.2876 35.5947 17.7344 32.8402 17.7344 29.9999C17.7344 27.1596 18.2915 24.4051 19.3863 21.8103C20.4461 19.3051 21.9616 17.0571 23.8941 15.1246C25.8266 13.1921 28.0746 11.6765 30.5798 10.6168C33.1746 9.51809 35.9292 8.96484 38.7694 8.96484C41.6097 8.96484 44.3642 9.52199 46.9591 10.6168C49.4642 11.6765 51.7123 13.1921 53.6448 15.1246C55.5772 17.0571 57.0928 19.3051 58.1526 21.8103C59.2513 24.4051 59.8045 27.1596 59.8045 29.9999C59.8045 32.8402 59.2474 35.5947 58.1526 38.1895C57.0928 40.6947 55.5772 42.9428 53.6448 44.8752C51.7123 46.8077 49.4642 48.3233 46.9591 49.383C44.3642 50.4778 41.6097 51.035 38.7694 51.035ZM38.7694 10.6012C28.0746 10.6012 19.3707 19.3012 19.3707 29.9999C19.3707 40.6947 28.0707 49.3986 38.7694 49.3986C49.4642 49.3986 58.1681 40.6986 58.1681 29.9999C58.1681 19.3051 49.4681 10.6012 38.7694 10.6012Z" fill="#4A4B5C"/>
<path d="M24.0628 16.948H11.9927C11.5408 16.948 11.1745 16.5818 11.1745 16.1298C11.1745 15.6779 11.5408 15.3116 11.9927 15.3116H24.0628C24.5148 15.3116 24.881 15.6779 24.881 16.1298C24.881 16.5818 24.5148 16.948 24.0628 16.948ZM19.7771 23.8831H6.73687C6.28492 23.8831 5.91869 23.5168 5.91869 23.0649C5.91869 22.6129 6.28492 22.2467 6.73687 22.2467H19.7771C20.2291 22.2467 20.5953 22.6129 20.5953 23.0649C20.5953 23.5168 20.2291 23.8831 19.7771 23.8831ZM18.5538 30.8181H8.007C7.55505 30.8181 7.18882 30.4519 7.18882 30C7.18882 29.548 7.55505 29.1818 8.007 29.1818H18.5576C19.0096 29.1818 19.3758 29.548 19.3758 30C19.3758 30.4519 19.0057 30.8181 18.5538 30.8181ZM3.9044 30.8181H1.01349C0.561546 30.8181 0.195312 30.4519 0.195312 30C0.195312 29.548 0.561546 29.1818 1.01349 29.1818H3.9044C4.35635 29.1818 4.72259 29.548 4.72259 30C4.72259 30.4519 4.35635 30.8181 3.9044 30.8181ZM19.7771 37.7532H6.73687C6.28492 37.7532 5.91869 37.387 5.91869 36.935C5.91869 36.4831 6.28492 36.1168 6.73687 36.1168H19.7771C20.2291 36.1168 20.5953 36.4831 20.5953 36.935C20.5953 37.387 20.2291 37.7532 19.7771 37.7532ZM24.0628 44.6883H11.9927C11.5408 44.6883 11.1745 44.322 11.1745 43.8701C11.1745 43.4181 11.5408 43.0519 11.9927 43.0519H24.0628C24.5148 43.0519 24.881 43.4181 24.881 43.8701C24.881 44.322 24.5148 44.6883 24.0628 44.6883ZM38.7706 47.4545C36.4135 47.4545 34.1304 46.9948 31.9758 46.0831C29.8992 45.2026 28.0291 43.9441 26.4278 42.3428C24.8265 40.7415 23.568 38.8753 22.6875 36.7948C21.7758 34.6441 21.3161 32.3571 21.3161 30C21.3161 27.6428 21.7758 25.3597 22.6875 23.2051C23.568 21.1285 24.8265 19.2584 26.4278 17.6571C28.0291 16.0558 29.8953 14.7974 31.9758 13.9168C34.1265 13.0052 36.4135 12.5454 38.7706 12.5454C41.1278 12.5454 43.4109 13.0052 45.5654 13.9168C47.6421 14.7974 49.5122 16.0558 51.1135 17.6571C52.7148 19.2584 53.9732 21.1246 54.8538 23.2051C55.7654 25.3558 56.2252 27.6428 56.2252 30C56.2252 32.3571 55.7654 34.6402 54.8538 36.7948C53.9732 38.8714 52.7148 40.7415 51.1135 42.3428C49.5122 43.9441 47.646 45.2026 45.5654 46.0831C43.4148 46.9909 41.1278 47.4545 38.7706 47.4545ZM38.7706 14.1818C30.0512 14.1818 22.9525 21.2766 22.9525 30C22.9525 38.7233 30.0473 45.8181 38.7706 45.8181C47.494 45.8181 54.5888 38.7233 54.5888 30C54.5888 21.2766 47.494 14.1818 38.7706 14.1818Z" fill="#4A4B5C"/>
<path d="M38.7708 32.5167C37.3838 32.5167 36.2539 31.3868 36.2539 29.9998C36.2539 28.6128 37.3838 27.4829 38.7708 27.4829C40.1578 27.4829 41.2877 28.6128 41.2877 29.9998C41.2916 31.3868 40.1617 32.5167 38.7708 32.5167ZM38.7708 29.1193C38.2838 29.1193 37.8903 29.5167 37.8903 29.9998C37.8903 30.4829 38.2877 30.8803 38.7708 30.8803C39.2539 30.8803 39.6513 30.4829 39.6513 29.9998C39.6513 29.5167 39.2578 29.1193 38.7708 29.1193Z" fill="#FF7C4A"/>
<path d="M38.771 29.1311C38.319 29.1311 37.9528 28.7649 37.9528 28.3129V21.8766C37.9528 21.4246 38.319 21.0584 38.771 21.0584C39.2229 21.0584 39.5891 21.4246 39.5891 21.8766V28.3129C39.5891 28.7649 39.2229 29.1311 38.771 29.1311ZM38.771 16.7064C38.319 16.7064 37.9528 16.3402 37.9528 15.8883V13.3636C37.9528 12.9116 38.319 12.5454 38.771 12.5454C39.2229 12.5454 39.5891 12.9116 39.5891 13.3636V15.8883C39.5891 16.3402 39.2229 16.7064 38.771 16.7064ZM28.793 20.8402C28.5826 20.8402 28.3762 20.7623 28.2164 20.5987L26.432 18.8142C26.1125 18.4948 26.1125 17.9766 26.432 17.6571C26.7515 17.3376 27.2697 17.3376 27.5891 17.6571L29.3736 19.4415C29.693 19.761 29.693 20.2792 29.3736 20.5987C29.2138 20.7623 29.0034 20.8402 28.793 20.8402ZM24.6632 30.8181H22.1385C21.6865 30.8181 21.3203 30.4519 21.3203 30C21.3203 29.548 21.6865 29.1818 22.1385 29.1818H24.6632C25.1151 29.1818 25.4814 29.548 25.4814 30C25.4814 30.4519 25.1151 30.8181 24.6632 30.8181ZM27.0086 42.5805C26.7982 42.5805 26.5917 42.5025 26.432 42.3389C26.1125 42.0194 26.1125 41.5013 26.432 41.1818L28.2164 39.3974C28.5359 39.0779 29.0541 39.0779 29.3736 39.3974C29.693 39.7168 29.693 40.235 29.3736 40.5545L27.5891 42.3389C27.4294 42.5025 27.219 42.5805 27.0086 42.5805ZM38.771 47.4545C38.319 47.4545 37.9528 47.0883 37.9528 46.6363V44.1116C37.9528 43.6597 38.319 43.2935 38.771 43.2935C39.2229 43.2935 39.5891 43.6597 39.5891 44.1116V46.6363C39.5891 47.0883 39.2229 47.4545 38.771 47.4545ZM50.5333 42.5805C50.3229 42.5805 50.1164 42.5025 49.9567 42.3389L48.1723 40.5545C47.8528 40.235 47.8528 39.7168 48.1723 39.3974C48.4917 39.0779 49.0099 39.0779 49.3294 39.3974L51.1138 41.1818C51.4333 41.5013 51.4333 42.0194 51.1138 42.3389C50.9541 42.5025 50.7437 42.5805 50.5333 42.5805ZM55.4073 30.8181H52.8827C52.4307 30.8181 52.0645 30.4519 52.0645 30C52.0645 29.548 52.4307 29.1818 52.8827 29.1818H55.4073C55.8593 29.1818 56.2255 29.548 56.2255 30C56.2255 30.4519 55.8593 30.8181 55.4073 30.8181ZM48.7489 20.8402C48.5385 20.8402 48.332 20.7584 48.1723 20.5987C47.8528 20.2792 47.8528 19.761 48.1723 19.4415L49.9567 17.6571C50.2762 17.3376 50.7943 17.3376 51.1138 17.6571C51.4333 17.9766 51.4333 18.4948 51.1138 18.8142L49.3294 20.5987C49.1697 20.7623 48.9593 20.8402 48.7489 20.8402Z" fill="#FF7C4A"/>
</svg>
