<svg width="46" height="60" viewBox="0 0 46 60" fill="none" xmlns="http://www.w3.org/2000/svg">
<g clip-path="url(#clip0_3779_12805)">
<path d="M45.9691 53.4997L40.7263 48.257C41.5055 47.1048 41.2065 45.5878 41.5068 44.6626C41.7989 43.7631 42.9891 42.6837 42.9891 41.2061C42.9891 39.7293 41.7984 38.6471 41.5068 37.75C41.0591 36.3707 41.9064 34.1895 39.1402 32.9443V2.90039C39.1402 1.30102 37.8393 0 36.2398 0H3.01758C1.4182 0 0.117188 1.30102 0.117188 2.90039V47.0664C0.117188 48.6657 1.4182 49.9668 3.01758 49.9668H19.3025L15.7695 53.4997C15.2691 54.0006 15.5379 54.8593 16.2341 54.9861L20.0125 55.6729L20.5206 59.2447C20.6223 59.9602 21.5003 60.2537 22.012 59.7423L29.0025 52.7517C29.2154 52.7074 29.4237 52.6561 29.6246 52.6062C31.2305 52.207 31.1096 52.4145 32.7366 52.7517C40.0666 59.9482 39.6834 59.9995 40.3482 59.9995C40.5598 59.9995 40.7643 59.9231 40.9241 59.7845C41.084 59.6458 41.1884 59.4542 41.2184 59.2447L41.7265 55.6729L45.505 54.9861C46.1993 54.8598 46.4714 54.0023 45.9691 53.4997ZM1.875 47.0664V2.90039C1.875 2.27051 2.3877 1.75781 3.01758 1.75781H36.2398C36.8701 1.75781 37.3823 2.27051 37.3823 2.90039V32.1135C36.6441 31.5334 35.9624 30.1145 34.6152 29.6768C33.2657 29.2388 31.8827 30.0243 30.8693 30.0243C29.6947 30.0243 28.1231 29.0053 26.5549 29.9359C25.5409 30.5374 24.9605 31.6759 24.2962 32.1593C23.4814 32.752 21.8211 32.922 20.9916 34.1866C20.241 35.3306 20.528 36.8372 20.2318 37.75C19.9416 38.6429 18.75 39.7343 18.75 41.2061C18.8113 41.4357 18.5632 41.8635 19.6743 43.6262C20.2761 44.5816 20.3205 44.7025 20.4043 45.8863C20.4615 46.6942 20.5284 47.5085 20.9807 48.2089H3.01758C2.3877 48.2089 1.875 47.6967 1.875 47.0664ZM22.013 57.2557L21.6632 54.7975C21.6371 54.6148 21.5543 54.445 21.4264 54.3121C21.2984 54.1791 21.1319 54.0899 20.9504 54.0568L18.1989 53.5564L22.3864 49.3689C24.0724 50.1942 23.9987 49.7667 25.1275 51.1212C25.5927 51.6792 26.0568 52.2248 26.7073 52.5609L22.013 57.2557ZM27.7048 51.075C27.1747 50.9312 26.6775 50.2144 26.1708 49.6325C24.6863 47.9278 23.1861 48.1622 22.5134 47.3323C22.0262 46.7189 22.2899 45.309 21.904 44.1197C21.4727 42.7917 20.2941 41.8863 20.5486 40.9112C20.6511 40.5198 20.9418 40.0721 21.1615 39.7234C21.9145 38.5286 22.0523 38.1422 22.1576 36.6499C22.2867 34.8263 22.4537 34.9182 24.2326 34.1688C25.3098 33.7153 25.6888 33.3638 26.4459 32.455C27.474 31.2227 27.6237 31.1207 29.2008 31.5124C30.6762 31.8786 31.1191 31.8649 32.5378 31.5124C34.102 31.1234 34.2206 31.1709 35.3251 32.4939C36.2183 33.5632 36.5836 33.7993 37.9042 34.3318C38.3487 34.5108 38.9896 34.7534 39.2532 35.1155C39.6996 35.7289 39.4569 37.1283 39.8351 38.2929C40.2063 39.435 41.2313 40.3976 41.2313 41.2061C41.2313 42.0163 40.2073 42.973 39.8351 44.1197C39.6588 44.6623 39.6195 45.2216 39.581 45.7627C39.4689 47.3538 39.3622 47.4926 37.8832 48.0889C36.5044 48.6448 36.1802 48.8905 35.2423 50.0184C34.2238 51.2398 34.0557 51.2773 32.5378 50.9002C30.023 50.2753 28.5777 51.3111 27.7048 51.075ZM40.7886 54.0568C40.6071 54.0897 40.4405 54.179 40.3125 54.312C40.1846 54.4449 40.1017 54.6148 40.0758 54.7975L39.7261 57.2557L35.0318 52.5609C35.8598 52.1218 36.3212 51.4421 36.9018 50.7779C37.6982 49.866 37.9971 50.0326 39.3526 49.3689L43.5402 53.5566L40.7886 54.0568Z" fill="#4A4B5C"/>
<path d="M8.10938 8.63672H31.1468C31.632 8.63672 32.0257 8.24297 32.0257 7.75781C32.0257 7.27266 31.632 6.87891 31.1468 6.87891H8.10938C7.62363 6.87891 7.23047 7.27254 7.23047 7.75781C7.23047 8.24309 7.62363 8.63672 8.10938 8.63672ZM8.10938 15.5273H31.1468C31.3799 15.5273 31.6035 15.4347 31.7683 15.2699C31.9331 15.1051 32.0257 14.8815 32.0257 14.6484C32.0257 14.4153 31.9331 14.1918 31.7683 14.027C31.6035 13.8621 31.3799 13.7695 31.1468 13.7695H8.10938C7.99394 13.7695 7.87963 13.7922 7.77298 13.8363C7.66632 13.8805 7.56941 13.9452 7.48779 14.0269C7.40617 14.1085 7.34143 14.2054 7.29728 14.312C7.25312 14.4187 7.23042 14.533 7.23047 14.6484C7.23047 14.8815 7.32307 15.1051 7.48789 15.2699C7.65272 15.4347 7.87627 15.5273 8.10938 15.5273ZM8.10938 22.418H31.1468C31.3799 22.418 31.6035 22.3254 31.7683 22.1605C31.9331 21.9957 32.0257 21.7722 32.0257 21.5391C32.0257 21.306 31.9331 21.0824 31.7683 20.9176C31.6035 20.7528 31.3799 20.6602 31.1468 20.6602H8.10938C7.99394 20.6601 7.87963 20.6828 7.77298 20.727C7.66632 20.7711 7.56941 20.8359 7.48779 20.9175C7.40617 20.9991 7.34143 21.096 7.29728 21.2027C7.25312 21.3093 7.23042 21.4236 7.23047 21.5391C7.23047 21.7722 7.32307 21.9957 7.48789 22.1605C7.65272 22.3254 7.87627 22.418 8.10938 22.418ZM14.8623 34.4412H8.10938C7.87627 34.4412 7.65272 34.5338 7.48789 34.6986C7.32307 34.8634 7.23047 35.087 7.23047 35.3201C7.23047 35.8058 7.62363 36.199 8.10938 36.199H14.8623C15.348 36.199 15.7412 35.8058 15.7412 35.3201C15.7412 35.087 15.6486 34.8634 15.4838 34.6986C15.319 34.5338 15.0954 34.4412 14.8623 34.4412ZM14.8623 41.332H8.10938C7.87627 41.332 7.65272 41.4246 7.48789 41.5895C7.32307 41.7543 7.23047 41.9778 7.23047 42.2109C7.23047 42.6966 7.62363 43.0898 8.10938 43.0898H14.8623C15.348 43.0898 15.7412 42.6966 15.7412 42.2109C15.7412 41.9778 15.6486 41.7543 15.4838 41.5895C15.319 41.4246 15.0954 41.332 14.8623 41.332ZM38.0878 41.2061C38.0878 37.2253 34.8492 33.9871 30.8685 33.9871C28.0816 33.9871 25.5149 35.619 24.3306 38.1449C24.2815 38.2493 24.2534 38.3624 24.2481 38.4777C24.2427 38.593 24.2601 38.7083 24.2993 38.8168C24.3385 38.9254 24.3987 39.0251 24.4765 39.1104C24.5543 39.1957 24.6482 39.2647 24.7527 39.3137C24.9638 39.4127 25.2055 39.4237 25.4248 39.3445C25.644 39.2653 25.8228 39.1022 25.9219 38.8911C26.8181 36.98 28.76 35.7449 30.8685 35.7449C33.8796 35.7449 36.33 38.1949 36.33 41.2061C36.33 44.2172 33.8801 46.6672 30.8685 46.6672C28.0312 46.6672 25.6939 44.5395 25.4321 41.7178C25.4073 41.4884 25.2932 41.2779 25.1145 41.1318C24.9358 40.9858 24.7069 40.9159 24.4771 40.9372C24.2473 40.9586 24.0351 41.0694 23.8863 41.2459C23.7376 41.4224 23.6642 41.6503 23.6821 41.8803C24.024 45.5671 27.1245 48.425 30.8685 48.425C34.8492 48.4254 38.0878 45.1868 38.0878 41.2061Z" fill="#FF7C4A"/>
</g>
<defs>
<clipPath id="clip0_3779_12805">
<rect width="46" height="60" fill="white"/>
</clipPath>
</defs>
</svg>
