<svg width="60" height="60" viewBox="0 0 60 60" fill="none" xmlns="http://www.w3.org/2000/svg">
<path d="M30 57.1873C22.7919 57.1791 15.8814 54.3121 10.7846 49.2152C5.68771 44.1184 2.82069 37.2079 2.8125 29.9998C2.8125 29.7512 2.91127 29.5127 3.08709 29.3369C3.2629 29.1611 3.50136 29.0623 3.75 29.0623C3.99864 29.0623 4.2371 29.1611 4.41291 29.3369C4.58873 29.5127 4.6875 29.7512 4.6875 29.9998C4.68165 36.0841 6.86756 41.967 10.845 46.5713C14.8224 51.1756 20.3252 54.1931 26.3458 55.0715C32.3664 55.9498 38.502 54.6302 43.6291 51.3542C48.7561 48.0782 52.5317 43.065 54.2644 37.2326C54.3366 36.9959 54.4995 36.7974 54.7175 36.6804C54.9356 36.5633 55.191 36.5372 55.4282 36.6077C55.6654 36.6782 55.8651 36.8397 55.9838 37.0569C56.1024 37.274 56.1304 37.5293 56.0616 37.767C54.3655 43.3655 50.919 48.2728 46.2283 51.7682C41.5376 55.2635 35.8498 57.1629 30 57.1873ZM56.25 30.9373C56.0014 30.9373 55.7629 30.8385 55.5871 30.6627C55.4113 30.4869 55.3125 30.2484 55.3125 29.9998C55.3183 23.9155 53.1324 18.0326 49.155 13.4283C45.1776 8.82404 39.6748 5.80648 33.6542 4.92813C27.6336 4.04977 21.498 5.36941 16.3709 8.64542C11.2439 11.9214 7.46832 16.9346 5.73563 22.767C5.66338 23.0037 5.50048 23.2022 5.28246 23.3192C5.06444 23.4363 4.80897 23.4624 4.57178 23.3919C4.33458 23.3214 4.13489 23.1599 4.01625 22.9428C3.8976 22.7256 3.86963 22.4703 3.93844 22.2326C5.79956 15.9684 9.85468 10.5842 15.3614 7.06561C20.868 3.54705 27.4578 2.12962 33.9242 3.07285C40.3906 4.01607 46.3009 7.25682 50.573 12.2018C54.8452 17.1467 57.1933 23.465 57.1875 29.9998C57.1875 30.2484 57.0887 30.4869 56.9129 30.6627C56.7371 30.8385 56.4986 30.9373 56.25 30.9373Z" fill="#FF7C4A"/>
<path d="M0.9373 33.7497C0.751909 33.7497 0.570692 33.6947 0.416558 33.5917C0.262424 33.4886 0.142293 33.3422 0.0713521 33.171C0.000411475 32.9997 -0.0181538 32.8112 0.0180033 32.6294C0.0541604 32.4475 0.143416 32.2805 0.274488 32.1494L3.08699 29.3369C3.2638 29.1661 3.50062 29.0716 3.74643 29.0738C3.99224 29.0759 4.22737 29.1745 4.40119 29.3483C4.57501 29.5221 4.67361 29.7573 4.67575 30.0031C4.67788 30.2489 4.58339 30.4857 4.41261 30.6625L1.60011 33.475C1.42434 33.6509 1.18592 33.7497 0.9373 33.7497Z" fill="#FF7C4A"/>
<path d="M6.5627 33.7497C6.31408 33.7497 6.07566 33.6509 5.89989 33.475L3.08739 30.6625C2.91661 30.4857 2.82212 30.2489 2.82425 30.0031C2.82639 29.7573 2.92499 29.5221 3.09881 29.3483C3.27263 29.1745 3.50776 29.0759 3.75357 29.0738C3.99938 29.0716 4.2362 29.1661 4.41301 29.3369L7.22551 32.1494C7.35658 32.2805 7.44584 32.4475 7.482 32.6294C7.51815 32.8112 7.49959 32.9997 7.42865 33.171C7.35771 33.3422 7.23758 33.4886 7.08344 33.5917C6.92931 33.6947 6.74809 33.7497 6.5627 33.7497ZM56.2502 30.9372C56.0648 30.9372 55.8836 30.8822 55.7295 30.7792C55.5753 30.6761 55.4552 30.5297 55.3843 30.3585C55.3133 30.1872 55.2947 29.9987 55.3309 29.8169C55.3671 29.635 55.4563 29.468 55.5874 29.3369L58.3999 26.5244C58.5767 26.3536 58.8135 26.2591 59.0593 26.2613C59.3051 26.2634 59.5403 26.362 59.7141 26.5358C59.8879 26.7096 59.9865 26.9448 59.9886 27.1906C59.9908 27.4364 59.8963 27.6732 59.7255 27.85L56.913 30.6625C56.7372 30.8384 56.4988 30.9372 56.2502 30.9372Z" fill="#FF7C4A"/>
<path d="M56.2502 30.9372C56.0016 30.9372 55.7632 30.8384 55.5874 30.6625L52.7749 27.85C52.6041 27.6732 52.5096 27.4364 52.5118 27.1906C52.5139 26.9448 52.6125 26.7096 52.7863 26.5358C52.9601 26.362 53.1953 26.2634 53.4411 26.2613C53.6869 26.2591 53.9237 26.3536 54.1005 26.5244L56.913 29.3369C57.0441 29.468 57.1333 29.635 57.1695 29.8169C57.2057 29.9987 57.1871 30.1872 57.1161 30.3585C57.0452 30.5297 56.9251 30.6761 56.7709 30.7792C56.6168 30.8822 56.4356 30.9372 56.2502 30.9372Z" fill="#FF7C4A"/>
<path d="M37.5 26.25C32.3747 26.25 29.0625 24.7781 29.0625 22.5C29.0625 20.2219 32.3747 18.75 37.5 18.75C42.6253 18.75 45.9375 20.2219 45.9375 22.5C45.9375 24.7781 42.6253 26.25 37.5 26.25ZM37.5 20.625C32.9194 20.625 30.9375 21.8663 30.9375 22.5C30.9375 23.1337 32.9194 24.375 37.5 24.375C42.0806 24.375 44.0625 23.1337 44.0625 22.5C44.0625 21.8663 42.0806 20.625 37.5 20.625Z" fill="#4A4B5C"/>
<path d="M37.5 30C32.3747 30 29.0625 28.5281 29.0625 26.25V22.5H30.9375V26.25C30.9375 26.8837 32.9194 28.125 37.5 28.125C42.0806 28.125 44.0625 26.8837 44.0625 26.25V22.5H45.9375V26.25C45.9375 28.5281 42.6253 30 37.5 30Z" fill="#4A4B5C"/>
<path d="M37.5 33.75C32.3747 33.75 29.0625 32.2781 29.0625 30V26.25H30.9375V30C30.9375 30.6337 32.9194 31.875 37.5 31.875C42.0806 31.875 44.0625 30.6337 44.0625 30V26.25H45.9375V30C45.9375 32.2781 42.6253 33.75 37.5 33.75Z" fill="#4A4B5C"/>
<path d="M37.5 37.5C32.3747 37.5 29.0625 36.0281 29.0625 33.75V30H30.9375V33.75C30.9375 34.3837 32.9194 35.625 37.5 35.625C42.0806 35.625 44.0625 34.3837 44.0625 33.75V30H45.9375V33.75C45.9375 36.0281 42.6253 37.5 37.5 37.5Z" fill="#4A4B5C"/>
<path d="M37.5 41.25C32.3747 41.25 29.0625 39.7781 29.0625 37.5V33.75H30.9375V37.5C30.9375 38.1337 32.9194 39.375 37.5 39.375C42.0806 39.375 44.0625 38.1337 44.0625 37.5V33.75H45.9375V37.5C45.9375 39.7781 42.6253 41.25 37.5 41.25ZM22.5 33.75C17.3747 33.75 14.0625 32.2781 14.0625 30C14.0625 27.7219 17.3747 26.25 22.5 26.25C27.6253 26.25 30.9375 27.7219 30.9375 30C30.9375 32.2781 27.6253 33.75 22.5 33.75ZM22.5 28.125C17.9194 28.125 15.9375 29.3663 15.9375 30C15.9375 30.6337 17.9194 31.875 22.5 31.875C27.0806 31.875 29.0625 30.6337 29.0625 30C29.0625 29.3663 27.0806 28.125 22.5 28.125Z" fill="#4A4B5C"/>
<path d="M22.5 37.5C17.3747 37.5 14.0625 36.0281 14.0625 33.75V30H15.9375V33.75C15.9375 34.3837 17.9194 35.625 22.5 35.625C27.0806 35.625 29.0625 34.3837 29.0625 33.75V30H30.9375V33.75C30.9375 36.0281 27.6253 37.5 22.5 37.5Z" fill="#4A4B5C"/>
<path d="M22.5 41.25C17.3747 41.25 14.0625 39.7781 14.0625 37.5V33.75H15.9375V37.5C15.9375 38.1337 17.9194 39.375 22.5 39.375C27.0806 39.375 29.0625 38.1337 29.0625 37.5V33.75H30.9375V37.5C30.9375 39.7781 27.6253 41.25 22.5 41.25Z" fill="#4A4B5C"/>
</svg>
