<svg width="60" height="60" viewBox="0 0 60 60" fill="none" xmlns="http://www.w3.org/2000/svg">
<path d="M36.2427 24.7348L27.7021 33.2755L23.7646 29.337C23.5878 29.1663 23.3509 29.0718 23.1051 29.0739C22.8593 29.076 22.6242 29.1746 22.4504 29.3485C22.2765 29.5223 22.178 29.7574 22.1758 30.0032C22.1737 30.249 22.2682 30.4858 22.4389 30.6627L27.0402 35.2648C27.2167 35.4392 27.4549 35.537 27.703 35.537C27.9512 35.537 28.1893 35.4392 28.3658 35.2648L37.5683 26.0605C37.7391 25.8837 37.8336 25.6468 37.8315 25.401C37.8293 25.1552 37.7307 24.9201 37.5569 24.7463C37.3831 24.5724 37.1479 24.4739 36.9021 24.4717C36.6563 24.4696 36.4195 24.5641 36.2427 24.7348Z" fill="#FF7C4A"/>
<path d="M10.9518 15.825C11.2005 15.825 11.4389 15.7262 11.6147 15.5504C11.7905 15.3746 11.8893 15.1361 11.8893 14.8875C11.8891 14.0909 12.2048 13.3267 12.7671 12.7626C13.3295 12.1984 14.0927 11.8803 14.8893 11.8781H20.4768C21.1168 11.8799 21.7508 11.7548 22.3422 11.51C22.9336 11.2652 23.4706 10.9057 23.9221 10.4522L27.8812 6.5128C28.4528 5.96665 29.213 5.66204 30.0036 5.66239C30.7942 5.66274 31.5541 5.96802 32.1252 6.51467C38.3034 12.6628 36.4415 11.8678 45.1143 11.8772C45.9109 11.8794 46.6741 12.1975 47.2365 12.7616C47.7989 13.3258 48.1146 14.09 48.1143 14.8865V20.4844C48.1127 21.1252 48.2382 21.7601 48.4836 22.3521C48.729 22.9442 49.0894 23.4817 49.544 23.9334L53.4984 27.869C54.059 28.4361 54.3736 29.2013 54.3739 29.9987C54.3743 30.7961 54.0604 31.5615 53.5003 32.129L49.5421 36.0684C49.088 36.5201 48.728 37.0573 48.4829 37.649C48.2378 38.2407 48.1126 38.8752 48.1143 39.5156V45.1031C48.1158 45.9009 47.8008 46.6668 47.2384 47.2327C46.676 47.7986 45.9121 48.1184 45.1143 48.1219H44.2143C43.9657 48.1219 43.7272 48.2206 43.5514 48.3965C43.3756 48.5723 43.2768 48.8107 43.2768 49.0594C43.2768 49.308 43.3756 49.5465 43.5514 49.7223C43.7272 49.8981 43.9657 49.9969 44.2143 49.9969C44.9233 50.104 45.647 50.0581 46.3368 49.8623C47.0266 49.6666 47.6665 49.3254 48.2135 48.8619C48.7606 48.3983 49.202 47.8231 49.5083 47.1747C49.8146 46.5264 49.9786 45.8201 49.9893 45.1031V39.5156C49.9917 38.7216 50.3066 37.9605 50.8659 37.3969L54.8268 33.4528C55.7367 32.5325 56.2466 31.2903 56.2457 29.9962C56.2449 28.7021 55.7333 27.4606 54.8221 26.5415L50.8678 22.6059C50.3073 22.0418 49.9916 21.2796 49.9893 20.4844V14.8875C49.9891 13.5938 49.4757 12.353 48.5618 11.4373C47.6478 10.5216 46.408 10.0058 45.1143 10.0031H39.5268C39.1322 10.0039 38.7413 9.92646 38.3768 9.77519C38.0123 9.62393 37.6815 9.40186 37.4034 9.12186L33.4499 5.18811C32.5361 4.27376 31.2965 3.75981 30.0038 3.75928C28.7111 3.75875 27.4711 4.27169 26.5565 5.1853L22.5984 9.12467C22.3203 9.40403 21.9897 9.6255 21.6255 9.77627C21.2614 9.92705 20.8709 10.0042 20.4768 10.0031H14.8893C13.5956 10.0058 12.3558 10.5216 11.4419 11.4373C10.528 12.353 10.0146 13.5938 10.0143 14.8875C10.0143 15.1361 10.1131 15.3746 10.2889 15.5504C10.4647 15.7262 10.7032 15.825 10.9518 15.825ZM9.13588 37.3941C9.69638 37.9581 10.012 38.7204 10.0143 39.5156V45.1031C10.0133 46.3981 10.526 47.6406 11.4399 48.558C12.3538 49.4754 13.5944 49.9929 14.8893 49.9969H20.4768C21.2715 49.9948 22.0347 50.3076 22.5993 50.8669L26.5556 54.8128C27.4696 55.7267 28.7092 56.2401 30.0018 56.2401C31.2944 56.2401 32.534 55.7267 33.4481 54.8128L37.4015 50.8706C37.9664 50.3095 38.7307 49.9953 39.5268 49.9969C39.7755 49.9969 40.0139 49.8981 40.1897 49.7223C40.3655 49.5465 40.4643 49.308 40.4643 49.0594C40.2074 47.0765 36.8849 48.6244 36.0806 49.5394L32.1234 53.4862C31.5599 54.0477 30.7968 54.3629 30.0013 54.3629C29.2059 54.3629 28.4428 54.0477 27.8793 53.4862L23.9193 49.5356C23.004 48.6275 21.7662 48.1191 20.4768 48.1219H14.8893C14.0915 48.1184 13.3276 47.7986 12.7652 47.2327C12.2028 46.6668 11.8878 45.9009 11.8893 45.1031V39.5156C11.891 38.8747 11.7655 38.2399 11.52 37.6478C11.2746 37.0558 10.9142 36.5183 10.4596 36.0666L6.509 32.1347C5.94709 31.5677 5.63144 30.802 5.63056 30.0038C5.62968 29.2055 5.94365 28.4391 6.50431 27.8709L10.4615 23.9315C10.9156 23.4799 11.2756 22.9427 11.5207 22.351C11.7658 21.7593 11.8911 21.1248 11.8893 20.4844V19.575C11.8893 19.3263 11.7905 19.0879 11.6147 18.9121C11.4389 18.7363 11.2005 18.6375 10.9518 18.6375C10.7032 18.6375 10.4647 18.7363 10.2889 18.9121C10.1131 19.0879 10.0143 19.3263 10.0143 19.575V20.4844C10.012 21.2784 9.69705 22.0395 9.13775 22.6031L5.17963 26.5434C4.26845 27.4636 3.75746 28.7063 3.75781 30.0013C3.75816 31.2963 4.26983 32.5387 5.1815 33.4584L9.13588 37.3941Z" fill="#4A4B5C"/>
<path d="M40.6091 20.7189C40.7845 20.5432 40.8831 20.3049 40.8831 20.0566C40.8831 19.8082 40.7845 19.57 40.6091 19.3942C39.2196 17.9969 37.5667 16.8891 35.7462 16.1349C33.9257 15.3806 31.9737 14.9949 30.0031 15.0002C16.7394 14.9392 9.99686 31.2658 19.3944 40.6099C31.5837 52.2958 50.5634 38.7874 43.5022 23.4602C43.3877 23.247 43.1953 23.0864 42.9651 23.0118C42.7349 22.9373 42.4848 22.9546 42.2671 23.0602C42.0495 23.1658 41.881 23.3514 41.797 23.5783C41.7131 23.8052 41.7201 24.0558 41.8166 24.2777C48.02 37.6549 31.3409 49.5227 20.72 39.2842C12.5 31.1064 18.395 16.8217 30.0031 16.8752C31.7274 16.8704 33.4356 17.2077 35.0287 17.8675C36.6218 18.5272 38.0683 19.4964 39.2844 20.7189C39.4601 20.8944 39.6983 20.9929 39.9467 20.9929C40.1951 20.9929 40.4333 20.8944 40.6091 20.7189Z" fill="#4A4B5C"/>
</svg>
