<svg width="60" height="60" viewBox="0 0 60 60" fill="none" xmlns="http://www.w3.org/2000/svg">
<path d="M30.8324 59.9061C29.5982 59.7188 28.364 59.5784 27.1454 59.3131C22.021 58.2052 17.7403 55.6617 14.2564 51.7449C13.7564 51.1831 13.7408 50.6214 14.2095 50.2C14.6626 49.7943 15.2406 49.8567 15.7405 50.4185C17.6622 52.5875 19.9275 54.3353 22.5366 55.6148C22.6616 55.6773 22.7865 55.7241 22.9428 55.8021C23.1615 55.2871 23.3646 54.7878 23.5833 54.2728C23.9114 53.5082 24.427 53.2117 25.005 53.4614C25.5987 53.7111 25.7393 54.2728 25.4112 55.0531C25.2237 55.5056 25.0363 55.9581 24.8644 56.4107C24.8488 56.4419 24.8644 56.4887 24.8488 56.5823C26.8954 57.3313 29.0201 57.7527 31.2855 57.8619C31.2855 57.2221 31.2855 56.6447 31.2855 56.0674C31.3011 55.3652 31.6604 54.9282 32.2385 54.897C32.8478 54.8814 33.254 55.334 33.2696 56.0674C33.2852 56.6135 33.2852 57.1597 33.2852 57.7059C33.2852 57.7371 33.3165 57.7683 33.3477 57.8619C35.5193 57.7839 37.6441 57.347 39.7375 56.5979C39.5032 56.0362 39.2845 55.5212 39.0814 54.9907C38.8002 54.2728 38.972 53.6955 39.5501 53.4614C40.1125 53.2429 40.6124 53.5082 40.9249 54.1948C41.1436 54.6942 41.3467 55.1935 41.5654 55.6929C41.5654 55.7085 41.5967 55.7241 41.6592 55.7709C43.6277 54.8502 45.4243 53.6487 47.1429 52.0882C46.6898 51.6669 46.2523 51.2768 45.8461 50.871C45.2993 50.3405 45.2681 49.7787 45.7055 49.3262C46.143 48.8892 46.7054 48.9205 47.2522 49.451C47.6584 49.8411 48.0334 50.2625 48.4708 50.7306C50.0331 49.0765 51.2048 47.2664 52.1891 45.2378C51.6423 45.0037 51.1111 44.7852 50.5799 44.5512C49.8769 44.2547 49.6113 43.7709 49.83 43.1936C50.0487 42.6162 50.6268 42.4289 51.3455 42.7098C51.8298 42.9127 52.3141 43.1155 52.7984 43.3028C52.8296 43.3184 52.8765 43.3184 52.9546 43.334C53.7045 41.2898 54.1264 39.1832 54.2357 36.9049C53.7514 36.9049 53.2671 36.9049 52.7984 36.9049C52.5484 36.9049 52.2828 36.9049 52.0485 36.8581C51.5486 36.7489 51.2361 36.2963 51.283 35.8282C51.3298 35.3444 51.6892 34.9543 52.2047 34.9387C52.8609 34.9075 53.5171 34.9387 54.2357 34.9387C54.142 32.6761 53.7202 30.5538 52.9546 28.4628C52.3766 28.6969 51.8298 28.9153 51.283 29.1338C50.5799 29.3991 50.0487 29.2118 49.8144 28.6345C49.5957 28.0727 49.8613 27.589 50.5174 27.3081C51.0486 27.074 51.5954 26.8555 52.1735 26.6215C51.2361 24.6085 50.0175 22.7983 48.4864 21.1286C48.049 21.5812 47.6272 22.0181 47.2054 22.4394C46.7054 22.9232 46.1274 22.9544 45.7055 22.5331C45.2681 22.0961 45.2993 21.5344 45.7993 21.035C46.2211 20.6137 46.6898 20.2236 47.1585 19.8023C45.4399 18.2262 43.6433 17.0246 41.6123 16.0728C41.378 16.6345 41.1592 17.1651 40.9249 17.6956C40.6281 18.3822 40.1125 18.6475 39.5501 18.4134C38.9876 18.1794 38.8002 17.6176 39.0658 16.9466C39.2688 16.4473 39.4876 15.9323 39.6907 15.433C39.7063 15.4018 39.6907 15.3549 39.6907 15.2769C37.6597 14.5435 35.5506 14.1066 33.2852 14.0285C33.2852 14.6839 33.3477 15.3081 33.254 15.9167C33.2071 16.26 32.9728 16.6657 32.6915 16.8374C32.4572 16.9778 31.9729 16.931 31.7385 16.775C31.5042 16.6189 31.348 16.2132 31.3011 15.9011C31.2386 15.3081 31.2855 14.6995 31.2855 14.0442C29.0358 14.1222 26.9423 14.5747 24.8019 15.3237C25.0206 15.8543 25.2394 16.338 25.4268 16.8374C25.5206 17.087 25.5987 17.3679 25.5831 17.6176C25.5674 18.0857 25.2706 18.3666 24.8332 18.4603C24.3332 18.5695 23.9426 18.351 23.7239 17.8985C23.4583 17.3211 23.224 16.7281 22.9584 16.0884C20.943 17.0246 19.162 18.2262 17.4903 19.7242C17.9434 20.1924 18.4121 20.6293 18.8339 21.0974C19.3807 21.706 19.1464 22.6267 18.3808 22.7515C18.0684 22.7983 17.6466 22.6423 17.3966 22.4394C16.9279 22.0649 16.5529 21.5812 16.1155 21.113C14.7251 22.6111 13.6314 24.1871 12.7409 25.9037C12.6472 26.0753 12.5691 26.2626 12.4753 26.4186C12.1629 26.9336 11.6161 27.1208 11.1318 26.8555C10.6474 26.6059 10.4287 26.0285 10.7256 25.4979C11.3036 24.4368 11.9442 23.4069 12.5534 22.377C12.6159 22.2834 12.6784 22.1742 12.7722 22.0181C11.6942 20.957 10.6162 19.9271 9.56945 18.8504C8.47583 17.758 8.08526 16.4317 8.47584 14.9336C9.25699 11.9843 12.9128 11.0169 15.1781 13.1547C16.1311 14.0598 17.0373 14.996 17.959 15.9323C18.1153 16.0884 18.2246 16.2756 18.3496 16.4473C19.0214 16.0259 19.5994 15.6514 20.1775 15.3081C22.5678 13.8881 25.13 12.9362 27.8484 12.4213C28.2077 12.3589 28.3327 12.234 28.3171 11.8595C28.3015 10.5799 28.3015 9.30035 28.3015 8.09879C27.6453 7.89593 27.0516 7.7867 26.5204 7.53703C25.0206 6.81922 24.177 5.25875 24.3332 3.60467C24.4738 2.0442 25.5831 0.686603 27.1297 0.187255C27.286 0.140442 27.4422 0.0624184 27.6141 0C30.7387 0 33.8633 0 36.9879 0C37.1129 0.0468138 37.2379 0.0936278 37.3628 0.140442C39.1595 0.655394 40.3625 2.24706 40.3156 4.10401C40.2687 5.97657 38.9876 7.52142 37.1285 7.92714C36.8785 7.97396 36.6286 8.00517 36.3317 8.03638C36.3317 9.31595 36.3473 10.5799 36.3161 11.8439C36.3161 12.234 36.4567 12.3432 36.8317 12.4525C38.4564 12.905 40.1125 13.3107 41.6748 13.9505C43.2683 14.6059 44.7525 15.511 46.393 16.3848C46.4398 16.3224 46.5648 16.1352 46.721 15.9791C47.6584 15.0428 48.5646 14.0754 49.5332 13.1703C51.8141 11.0325 55.4231 12.078 56.2198 15.1053C56.2511 15.1989 56.298 15.2769 56.3292 15.3705C56.3292 15.8075 56.3292 16.2288 56.3292 16.6657C56.0324 17.8673 55.2981 18.7723 54.4232 19.5994C53.5639 20.4108 52.7359 21.2691 51.8923 22.1117C51.986 22.2678 52.0485 22.377 52.1266 22.5019C54.0326 25.2795 55.2981 28.338 55.9074 31.6618C56.0792 32.6292 56.1886 33.6123 56.3292 34.5954C56.3292 35.5317 56.3292 36.468 56.3292 37.4043C56.2198 38.2313 56.1105 39.0583 55.9855 39.8854C54.5013 49.451 47.0023 57.3938 37.5191 59.4068C36.2692 59.672 34.9881 59.7969 33.707 59.9997C32.7072 59.9061 31.7698 59.9061 30.8324 59.9061ZM32.2229 5.96096C33.5352 5.96096 34.8319 5.96096 36.1442 5.96096C37.3628 5.94536 38.2221 5.13392 38.2377 3.99478C38.2533 2.82443 37.3785 1.98179 36.1442 1.96618C33.5508 1.95058 30.9574 1.95058 28.364 1.96618C27.161 1.96618 26.2705 2.82443 26.2705 3.93236C26.2549 5.0871 27.1297 5.92975 28.3796 5.94536C29.6607 5.96096 30.9418 5.96096 32.2229 5.96096ZM16.6311 17.5864C15.6468 16.5721 14.6469 15.4954 13.5689 14.4811C12.8347 13.7945 11.6942 13.8725 10.9599 14.5591C10.2256 15.2457 10.0381 16.4161 10.7099 17.1495C11.7411 18.273 12.8972 19.3029 13.9127 20.286C14.7875 19.4121 15.7093 18.5071 16.6311 17.5864ZM50.658 20.3328C51.6267 19.3809 52.689 18.3822 53.6889 17.3211C54.3919 16.5721 54.3451 15.4018 53.6577 14.6527C52.9702 13.9193 51.7985 13.7321 51.0642 14.4031C49.9394 15.433 48.9083 16.5877 47.924 17.602C48.8145 18.4759 49.7207 19.3965 50.658 20.3328ZM30.27 11.9999C31.6136 11.9999 32.9103 11.9999 34.207 11.9999C34.207 10.658 34.207 9.33156 34.207 8.00517C32.879 8.00517 31.5823 8.00517 30.27 8.00517C30.27 9.34716 30.27 10.6423 30.27 11.9999Z" fill="#4A4B5C"/>
<path d="M31.2698 26.3406C31.2698 24.6241 31.2698 22.9076 31.2698 21.1911C31.2698 20.3797 31.6292 19.9583 32.2697 19.9739C32.8946 19.9739 33.2696 20.4265 33.2696 21.2223C33.2696 24.6553 33.2696 28.0727 33.2696 31.5057C33.2696 31.9115 33.3633 32.1143 33.7695 32.2704C35.5662 32.9726 36.566 34.8607 36.1911 36.7177C35.8161 38.5902 34.1913 39.9322 32.2697 39.9322C30.3481 39.9322 28.7233 38.6058 28.3483 36.7333C27.9734 34.8607 28.942 32.9882 30.7387 32.286C31.1917 32.1143 31.2855 31.8647 31.2855 31.4277C31.2542 29.7268 31.2698 28.0259 31.2698 26.3406ZM32.2541 37.9192C33.3789 37.9192 34.2382 37.0454 34.2382 35.9062C34.2226 34.8139 33.3633 33.9401 32.2697 33.9245C31.1761 33.9089 30.2543 34.8295 30.2543 35.9219C30.2543 37.0298 31.1449 37.9192 32.2541 37.9192Z" fill="#4A4B5C"/>
<path d="M12.7254 30.9437C10.0695 30.9437 7.41354 30.9437 4.75763 30.9437C4.52328 30.9437 4.28894 30.9437 4.05459 30.8969C3.55465 30.7876 3.27344 30.4599 3.27344 29.945C3.27344 29.43 3.53903 29.1023 4.03897 28.9931C4.24207 28.9463 4.46079 28.9463 4.67951 28.9463C10.0695 28.9463 15.4594 28.9463 20.8494 28.9463C21.0368 28.9463 21.2399 28.9463 21.4274 28.9775C21.9273 29.0711 22.2867 29.4925 22.2398 29.9606C22.2086 30.4599 21.943 30.8032 21.4274 30.8969C21.1931 30.9437 20.9587 30.9437 20.7244 30.9437C18.0685 30.9437 15.3969 30.9437 12.7254 30.9437Z" fill="#FF7C4A"/>
<path d="M12.7254 42.928C10.0382 42.928 7.33543 42.928 4.64827 42.928C4.46079 42.928 4.25769 42.9436 4.07022 42.8968C3.5859 42.7875 3.27344 42.3662 3.28906 41.8825C3.30469 41.3831 3.66402 41.0086 4.16395 40.9462C4.32018 40.9306 4.47641 40.9306 4.63264 40.9306C10.0538 40.9306 15.4907 40.9306 20.9118 40.9306C21.0525 40.9306 21.1931 40.9306 21.318 40.9306C21.8492 40.9774 22.2398 41.3831 22.2554 41.8825C22.2711 42.3662 21.8961 42.8187 21.3962 42.8968C21.2243 42.928 21.0525 42.9124 20.865 42.9124C18.1466 42.928 15.4282 42.928 12.7254 42.928Z" fill="#FF7C4A"/>
<path d="M15.8344 34.9384C18.5215 34.9384 21.2243 34.9384 23.9115 34.9384C24.1771 34.9384 24.5364 34.9072 24.6926 35.0633C24.9426 35.3129 25.2082 35.6874 25.1926 36.0151C25.1769 36.296 24.8489 36.6237 24.5833 36.8266C24.4114 36.9514 24.0989 36.9202 23.849 36.9202C18.459 36.9202 13.0691 36.9202 7.69476 36.9202C7.60102 36.9202 7.49166 36.9202 7.39792 36.9202C6.71051 36.889 6.25744 36.4989 6.25744 35.9059C6.25744 35.3285 6.69488 34.9228 7.39792 34.9228C9.81949 34.9228 12.2411 34.9228 14.6626 34.9228C15.0532 34.9384 15.4438 34.9384 15.8344 34.9384Z" fill="#FF7C4A"/>
<path d="M15.7719 45.9241C18.459 45.9241 21.1618 45.9241 23.849 45.9241C24.1146 45.9241 24.4739 45.8773 24.6458 46.0333C24.9113 46.2674 25.2082 46.6419 25.1926 46.954C25.1769 47.2661 24.8489 47.6094 24.5833 47.8279C24.427 47.9683 24.0989 47.9215 23.849 47.9215C18.459 47.9215 13.0691 47.9215 7.69476 47.9215C7.5229 47.9215 7.33543 47.9215 7.16357 47.9059C6.61677 47.8279 6.25744 47.4221 6.25744 46.9228C6.25744 46.3922 6.64801 45.9709 7.22607 45.9553C8.00722 45.9241 8.78837 45.9397 9.56952 45.9397C11.6318 45.9241 13.7096 45.9241 15.7719 45.9241Z" fill="#FF7C4A"/>
</svg>
