<svg width="60" height="60" viewBox="0 0 60 60" fill="none" xmlns="http://www.w3.org/2000/svg">
<path d="M36.2616 0C37.1071 0.374803 37.9996 0.655905 38.7982 1.12441C39.6907 1.63976 40.3013 2.48307 40.7085 3.4357C41.4287 5.09108 42.6813 5.91877 44.4663 6.09055C47.8641 6.40289 50.2284 9.5731 49.5395 12.9151C49.1794 14.6954 49.6021 16.1009 50.98 17.319C53.5479 19.5678 53.5636 23.5345 50.98 25.7989C49.6021 27.0171 49.1637 28.4226 49.5238 30.2029C49.9779 32.5142 49.2107 34.435 47.3474 35.8874C46.9716 36.1841 46.8933 36.3871 47.0656 36.84C49.195 42.384 51.3088 47.9436 53.4227 53.4875C53.4696 53.6125 53.5166 53.7374 53.5792 53.8623C53.7671 54.284 53.7828 54.7056 53.4227 55.0492C53.0938 55.3772 52.7024 55.3459 52.2796 55.2054C50.479 54.5495 48.6783 53.9092 46.8777 53.2689C46.2983 53.0659 45.7033 52.8472 45.077 52.6286C44.9674 52.816 44.8421 53.0034 44.7482 53.1908C43.6835 55.1429 42.6187 57.095 41.5383 59.0315C41.3504 59.3751 41.0686 59.6718 40.8181 59.9997C40.5832 59.9997 40.3483 59.9997 40.1135 59.9997C39.8786 59.6562 39.5811 59.3438 39.4245 58.9534C37.4046 53.7218 35.4161 48.4745 33.4119 43.2273C33.3336 43.0399 33.2553 42.7588 33.0987 42.6963C32.3628 42.3371 31.6269 41.9623 30.844 41.7437C29.7949 41.4626 28.8241 41.8218 27.869 42.2903C27.227 42.6182 26.8825 43.0555 26.632 43.7114C24.7218 48.8025 22.7802 53.8779 20.8229 58.9534C20.682 59.3282 20.3689 59.6562 20.134 59.9997C19.8991 59.9997 19.6643 59.9997 19.4294 59.9997C19.1945 59.6874 18.897 59.3907 18.7091 59.0315C17.5348 56.9232 16.3761 54.7993 15.2018 52.6442C14.9982 52.7067 14.826 52.7535 14.6381 52.8316C12.446 53.6125 10.2695 54.3933 8.07743 55.1898C7.63901 55.3459 7.20059 55.4396 6.8248 55.0648C6.4177 54.6744 6.5273 54.2371 6.7152 53.7686C8.86033 48.1622 10.9898 42.5558 13.1349 36.9493C13.3228 36.4652 13.3072 36.2154 12.8531 35.8562C11.0681 34.3882 10.3165 32.4673 10.7706 30.1873C11.1307 28.407 10.6923 27.0014 9.3144 25.7833C6.74651 23.5189 6.74651 19.5678 9.3144 17.3034C10.6766 16.1165 11.1307 14.711 10.7706 12.9619C10.0816 9.52625 12.399 6.4185 15.8907 6.07493C17.5348 5.90315 18.7874 5.16916 19.4764 3.63871C20.3532 1.70223 21.8094 0.499737 23.8919 0.0937007C23.9389 0.0780839 23.9858 0.0312336 24.0328 0C24.5808 0 25.1289 0 25.6769 0C26.632 0.374803 27.5715 0.749606 28.5266 1.14003C29.607 1.5773 30.6874 1.5773 31.7678 1.14003C32.7073 0.749606 33.6624 0.374803 34.6175 0C35.1656 0 35.7136 0 36.2616 0ZM47.8171 11.8375C47.7858 11.5252 47.7702 11.2441 47.7075 10.9786C47.3317 9.32323 46.0321 8.12073 44.3254 7.94895C41.8045 7.69908 40.0508 6.46535 38.9861 4.15407C37.9996 2.01457 35.5257 1.26496 33.4119 2.37375C32.9578 2.60801 32.5194 2.85787 32.034 3.01404C30.2646 3.59186 28.5736 3.32638 26.9608 2.4206C24.8314 1.23373 22.3418 1.98333 21.3397 4.13845C20.2593 6.46535 18.4899 7.68346 15.9377 7.94895C13.6673 8.1832 12.1172 10.3539 12.6026 12.5871C13.1193 15.0077 12.4773 16.9911 10.614 18.6465C8.79769 20.2394 8.81335 22.8474 10.6297 24.4559C12.4773 26.08 13.1193 28.0634 12.6339 30.4684C12.5243 30.9993 12.5243 31.6084 12.6339 32.1394C13.0097 33.9041 14.2936 34.9348 16.3761 35.2003C18.6622 35.497 20.2749 36.6839 21.2457 38.7609C22.3418 41.1034 24.7844 41.8843 27.0391 40.6349C29.1216 39.4793 31.1885 39.4793 33.2866 40.6193C33.8503 40.9316 34.5236 41.1503 35.1656 41.1971C36.8723 41.3377 38.3128 40.4163 39.08 38.7609C39.9256 36.9337 41.2878 35.7781 43.245 35.3096C43.7148 35.2003 44.2158 35.1846 44.6856 35.0909C46.815 34.6381 48.1616 32.5923 47.6919 30.4684C47.1908 28.1102 47.8015 26.1113 49.6178 24.5028C49.9153 24.2373 50.2128 23.9249 50.4163 23.5814C51.4811 21.926 51.1209 19.927 49.5552 18.5215C47.8484 17.0067 47.2065 15.1171 47.6292 12.8839C47.7232 12.5247 47.7702 12.1655 47.8171 11.8375ZM15.2331 36.7932C13.1662 42.2122 11.1777 47.4282 9.14217 52.7692C9.48664 52.6442 9.70585 52.5818 9.92506 52.5037C11.6474 51.879 13.3855 51.2699 15.1078 50.6453C15.9064 50.3642 16.2508 50.4891 16.6423 51.2231C17.5504 52.8785 18.4586 54.5495 19.3668 56.2049C19.4607 56.361 19.5547 56.5172 19.6956 56.7514C21.4493 52.1601 23.1716 47.6468 24.894 43.118C22.2635 42.915 20.4941 41.65 19.4137 39.3231C19.1162 38.6672 18.5369 38.0269 17.9106 37.6677C17.112 37.2304 16.1569 37.0899 15.2331 36.7932ZM45.1553 36.9806C42.9162 36.965 41.4287 37.9176 40.5675 39.9478C40.0195 41.244 38.9391 42.1497 37.6082 42.6339C36.9192 42.8837 36.199 43.0087 35.4631 43.1961C37.1698 47.6781 38.8921 52.1601 40.6458 56.7671C41.6949 54.8462 42.6813 53.0503 43.6678 51.2543C44.0906 50.4735 44.4037 50.3486 45.2336 50.6453C46.4549 51.0825 47.6605 51.5198 48.8662 51.9415C49.5865 52.207 50.3224 52.4568 51.1836 52.7535C49.1481 47.4126 47.1438 42.1966 45.1553 36.9806Z" fill="#4A4B5C"/>
<path d="M16.0625 21.5356C16.0625 13.774 22.3883 7.48047 30.1859 7.48047C37.9366 7.49609 44.2623 13.8053 44.2467 21.5356C44.231 29.3284 37.8896 35.6063 30.0606 35.5907C22.357 35.5751 16.0625 29.2503 16.0625 21.5356ZM30.2016 9.3701C23.3434 9.40134 17.9258 14.836 17.9571 21.6918C17.9728 28.3289 23.5313 33.7635 30.2485 33.7323C36.9345 33.7011 42.4147 28.1883 42.3834 21.5356C42.3364 14.8047 36.8562 9.33887 30.2016 9.3701Z" fill="#4A4B5C"/>
<path d="M24.6906 27.8444C24.9255 26.5014 25.129 25.1271 25.3952 23.784C25.4735 23.378 25.3795 23.1437 25.0977 22.8783C24.1739 22.0037 23.2814 21.1136 22.3576 20.239C21.9974 19.8955 21.7782 19.5363 21.9505 19.0521C22.1227 18.5836 22.5298 18.4743 22.9839 18.4119C24.2678 18.2401 25.5361 18.0371 26.8201 17.8653C27.1802 17.8184 27.3524 17.6623 27.509 17.3499C28.057 16.2099 28.6364 15.0855 29.1844 13.9455C29.4036 13.5082 29.6698 13.1802 30.2022 13.1958C30.6876 13.2115 30.9537 13.5238 31.1573 13.9455C31.7053 15.0855 32.2847 16.2099 32.8327 17.3499C32.9736 17.6623 33.1458 17.8184 33.5216 17.8653C34.8056 18.0214 36.0739 18.2401 37.3578 18.4119C37.7962 18.4743 38.219 18.5836 38.3912 19.0521C38.5635 19.5363 38.3443 19.9111 37.9998 20.239C37.076 21.1136 36.1835 22.0193 35.2597 22.8783C34.9778 23.1437 34.8682 23.378 34.9465 23.784C35.197 25.0802 35.4319 26.392 35.6041 27.7038C35.6511 28.0318 35.4789 28.5003 35.2283 28.7033C35.0091 28.8751 34.4924 28.8751 34.2106 28.7346C32.9893 28.1567 31.8149 27.5164 30.6249 26.8762C30.3118 26.7044 30.0769 26.72 29.7637 26.8762C28.5737 27.5164 27.3837 28.1411 26.1781 28.7502C25.3952 29.125 24.6593 28.6721 24.6906 27.8444ZM30.1552 16.1787C29.6855 17.1157 29.2627 17.9434 28.8712 18.771C28.6364 19.2552 28.3076 19.5206 27.7595 19.5831C26.8201 19.6924 25.8962 19.8642 25.0351 19.9892C25.6927 20.6919 26.3347 21.4103 26.9923 22.0818C27.3368 22.4254 27.4777 22.8002 27.3681 23.2999C27.1802 24.2525 27.0393 25.2052 26.867 26.2359C27.7126 25.7986 28.5111 25.4238 29.2627 24.9709C29.8733 24.6117 30.4057 24.6117 31.0164 24.9553C31.768 25.3926 32.5665 25.783 33.4277 26.2359C33.2711 25.3145 33.1615 24.5024 32.9736 23.706C32.7857 22.9095 32.9736 22.3317 33.5999 21.8007C34.2262 21.2697 34.7429 20.6294 35.3379 20.0048C34.4141 19.8642 33.506 19.708 32.5978 19.6143C32.0028 19.5519 31.6427 19.2708 31.4078 18.7398C31.0477 17.8965 30.6249 17.1 30.1552 16.1787Z" fill="#FF7C4A"/>
</svg>
